<svg width="4812" height="2417" viewBox="0 0 4812 2417" fill="none" xmlns="http://www.w3.org/2000/svg">
<mask id="mask0_401_96" style="mask-type:luminance" maskUnits="userSpaceOnUse" x="0" y="115" width="4812" height="2187">
<path d="M4812 115H0V2301.94H4812V115Z" fill="white"/>
</mask>
<g mask="url(#mask0_401_96)">
<g filter="url(#filter0_f_401_96)">
<g filter="url(#filter1_f_401_96)">
<path d="M661.675 488.173H683.328V534.976H661.675V488.173ZM660.005 115H685.362V161.802H660.005V115ZM697.884 486.511L723.241 481.109L734.041 534.976H703.258L697.884 486.511ZM650.875 486.511L625.518 482.771L614.718 534.976H647.171L650.875 486.511ZM734.093 477.42L751.989 470.356L786.111 531.235L755.328 534.976L734.093 477.42ZM616.753 479.499L598.857 472.434L562.649 533.313L595.101 534.976L616.753 479.499ZM762.789 465.006L782.772 452.591L840.581 527.962L806.459 531.703L762.789 465.006ZM585.97 465.006L565.987 452.591L508.179 527.962L540.631 531.703L585.97 465.006ZM789.815 445.11L806.042 428.956L908.773 516.743L861.764 523.808L789.815 445.11ZM558.944 447.189L542.718 431.034L441.604 517.158L488.613 524.223L558.944 447.189ZM815.172 418.203L825.972 400.386L1009.84 497.315L946.596 509.731L815.172 418.203ZM531.917 418.203L521.117 400.386L337.203 498.926L400.438 511.341L531.917 418.203ZM833.068 384.231L840.163 364.336L1152.16 457.525L1071.04 482.771L833.068 384.231ZM514.021 385.894L506.926 365.999L194.924 459.187L276.055 484.433L514.021 385.894ZM842.251 353.583L846.007 330.416L1298.62 387.97L1228.34 427.294L842.251 353.583ZM503.17 353.583L501.5 330.416L50.5569 387.97L120.836 427.294L503.17 353.583ZM694.127 161.387L715.78 165.127L732.007 115H703.31L694.127 161.387ZM652.962 161.387L631.31 165.127L616.753 115H645.449L652.962 161.387ZM730.337 170.529L751.989 179.62L784.442 120.402L757.415 118.74L730.337 170.529ZM618.423 168.867L596.77 177.957L564.317 120.402L591.344 118.74L618.423 168.867ZM762.789 185.022L779.016 195.774L833.12 124.09L804.424 122.428L762.789 185.022ZM584.301 185.022L568.075 195.774L515.64 124.09L544.335 122.428L584.301 185.022ZM789.815 204.501L800.615 213.591L900.06 132.817L860.564 127.415L789.815 204.501ZM561.03 201.177L550.231 210.267L452.456 129.077L491.952 122.013L561.03 201.177ZM807.711 222.682L820.181 240.499L1000.71 150.634L925.003 136.557L807.711 222.682ZM539.378 220.604L526.908 238.421L348.472 148.557L424.178 134.064L539.378 220.604ZM827.694 252.914L834.79 270.731L1120.18 182.944L1056.95 161.387L827.694 252.914ZM519.396 252.914L512.3 270.731L226.907 182.944L290.142 161.387L519.396 252.914ZM838.494 278.212L842.251 296.029L1267.83 240.551L1199.17 208.241L838.494 278.212ZM508.596 278.212L504.839 296.029L79.2528 242.161L147.915 209.851L508.596 278.212ZM845.955 323.352L844.285 303.457L1338.48 292.704V341.169L845.955 323.352ZM501.135 323.352L502.804 303.457L1.93042 292.704V342.831L501.135 323.352Z" fill="#F7F7F7"/>
<path d="M753.607 432.696L672.529 375.09L591.397 432.696L622.18 339.507L542.719 280.237H642.163L672.529 185.022L704.929 280.237H804.373L723.241 339.507L753.607 432.696Z" fill="#F7F7F7"/>
</g>
<path d="M1337.59 2013.34C1333.63 2048.92 1324.29 2082.52 1299.82 2110.05C1270.76 2142.78 1232.21 2159.76 1191.4 2172.08C1125.14 2192.02 1057.26 2205.84 990.215 2222.82C916.443 2241.52 842.407 2259.19 768.632 2278.1C738.267 2285.89 674.354 2301.94 672.737 2301.94C671.589 2301.94 653.223 2296.12 645.032 2294.04C544.178 2268.74 443.117 2244.28 342.421 2218.57C274.593 2201.27 205.88 2187.14 138.888 2166.57C91.6701 2152.08 50.0352 2128.91 24.0002 2084.7C4.01742 2050.74 0 2013.28 0 1974.79C0.156519 1532.68 0.208698 1076.39 0 634.295C0 634.295 1324.4 634.45 1338.28 634.554C1338.28 634.554 1338.12 1541.04 1338.12 1988.14C1338.06 1991.57 1337.85 2010.79 1337.59 2013.34ZM1203.92 763.326C1197.04 763.17 1187.96 763.326 1181.08 763.326C838.181 763.326 495.343 763.326 152.453 763.326C132.888 763.326 132.001 761.767 132.001 781.611C132.001 1058.11 132.784 1336.12 133.044 1612.62C133.149 1722.6 131.584 1832.56 134.192 1942.48C135.34 1990.58 156.627 2025.96 201.81 2045.49C211.932 2049.85 221.949 2054.62 232.333 2058.31C279.759 2075.2 328.646 2086.73 377.482 2098.83C459.708 2119.15 542.039 2139.09 624.371 2158.93C655.049 2166.37 683.641 2167.4 714.789 2159.14C856.964 2121.64 1001.22 2092.03 1139.9 2041.85C1184.83 2025.59 1205.75 1987.88 1204.55 1928.87C1204.55 1551.55 1203.87 771.326 1203.87 769.508L1203.92 763.326Z" fill="#F7F7F7"/>
<path d="M1576.24 633.152H1677.14V996.455C1677.14 1038.01 1682.26 1066.17 1692.43 1080.97C1702.61 1095.77 1720.71 1103.21 1746.74 1103.21C1772.52 1103.21 1790.42 1095.72 1800.38 1080.82C1810.34 1065.91 1815.31 1037.28 1815.31 995.052V633.152H1914.8V1005.23C1914.8 1041.39 1912.76 1067.82 1908.65 1084.5C1904.52 1101.17 1897.68 1115.82 1888.08 1128.44C1873.53 1147.35 1854.33 1161.53 1830.43 1170.99C1806.53 1180.44 1778.16 1185.18 1745.34 1185.18C1683.45 1185.18 1639.79 1171.81 1614.38 1145.06C1588.92 1118.37 1576.24 1071.73 1576.24 1005.23V633.152Z" fill="#F7F7F7"/>
<path d="M963.195 1680.74C963.195 1684.26 961.893 1687.64 959.33 1690.09C958.79 1690.58 958.29 1691.03 957.845 1691.47C942.677 1706.61 953.932 1719.12 961.536 1732.07C974.403 1753.98 984.118 1776.86 982.681 1802.99C982.277 1810.34 983.356 1818.4 977.189 1823.96C971.521 1829.13 964.679 1833 956.536 1830.16C946.955 1826.76 943.899 1818.36 943.264 1809.58C941.828 1789.32 937.597 1770.01 928.152 1751.84C909.927 1716.72 879.331 1699 840.007 1692.45C825.564 1690.04 811.482 1686.13 797.624 1681.36C791.505 1679.28 787.995 1680.3 785.296 1684.49C781.291 1690.58 775.622 1695.52 769.054 1696.64C752.991 1699.39 745.567 1710.44 738.233 1722.9C729.46 1737.77 719.697 1752.07 709.978 1766.31C705.883 1772.32 704.984 1777.89 707.053 1784.96C713.577 1807.31 731.439 1872.98 734.993 1889.13C735.219 1890.21 735.983 1891.14 737.064 1891.5C738.413 1891.94 740.708 1892.21 744.442 1891.5C785.656 1883.98 825.069 1870.66 864.169 1856.28C872.987 1853.04 880.905 1854.1 886.758 1861.58C891.751 1867.99 892.378 1875.56 888.282 1882.72C884.822 1888.79 878.791 1892.26 872.447 1894.61C856.88 1900.41 841.267 1906.01 825.475 1911.26C753.261 1935.44 678.933 1938.82 603.705 1932.37C580.803 1930.41 557.902 1926.54 535.675 1921.73C506.61 1915.44 478.759 1903.56 450.459 1893.99C448.255 1893.24 446.275 1891.72 444.25 1890.52C433.452 1884.07 429.087 1872.98 433.677 1863.67C438.356 1854.23 448.164 1851.08 460.447 1855.53C473.855 1860.43 487.038 1866.08 500.581 1870.57C531.176 1880.72 562.941 1886.25 594.436 1892.97C600.69 1894.3 599.88 1889.94 600.51 1886.95C607.079 1855.75 616.123 1825.03 626.651 1794.94C631.33 1781.63 629.846 1771.96 621.341 1760.83C609.059 1744.71 597.586 1726.78 586.473 1709.82C583.188 1704.78 579.049 1700.91 572.93 1698.95C568.115 1697.39 561.951 1695.48 559.567 1691.74C550.748 1677.99 539.545 1679.72 526.632 1684.04C504.811 1691.39 481.729 1694.37 460.133 1702.6C426.928 1715.3 408.211 1741.16 396.062 1772.5C391.653 1783.85 389.584 1796 388.819 1808.29C388.594 1812.17 387.559 1816.09 386.209 1819.78C383.374 1827.57 377.481 1832.38 369.157 1832.29C360.653 1832.2 355.389 1827.17 353.77 1818.66C351.16 1804.95 351.25 1791.06 354.939 1777.75C361.238 1755.18 368.122 1732.6 383.374 1713.82C386.074 1710.48 384.634 1706.12 383.015 1703.98C374.736 1693.03 373.746 1680.17 371.632 1667.52C373.656 1647.98 371.946 1628.35 372.487 1608.75C372.666 1601.9 368.077 1602.57 363.713 1602.61C345.085 1602.74 326.414 1602.39 307.787 1603.19C270.533 1602.39 243.447 1596.29 222.93 1566.46C216.271 1551.24 216.226 1535.21 216.271 1519C216.361 1433.21 216.631 1347.43 216.002 1261.59C215.821 1237.2 230.804 1218.1 247.676 1215.69C254.74 1214.71 266.303 1214.36 266.529 1194.9C266.888 1163.83 281.421 1152.66 311.386 1152.3C325.469 1153.06 333.028 1149.5 334.557 1135.47C342.341 1125.9 351.43 1119.22 364.883 1120.82C370.282 1121.49 372.711 1118.2 372.666 1112.9C372.396 1083.92 372.216 1054.97 371.946 1026C373.296 996.214 386.479 984.461 416.804 984.728C457.028 985.084 497.252 984.728 537.475 984.951C543.909 984.995 546.833 983.615 546.383 976.448C544.539 946.174 566.09 928.501 593.941 927.922C645.278 926.853 696.66 926.63 747.996 927.699C771.033 928.189 793.035 943.014 791.685 972.841C791.234 982.502 794.159 985.397 804.148 985.218C841.942 984.506 879.781 984.907 917.619 984.639C942.455 984.461 961.759 1001.51 963.6 1025.64C963.378 1054.97 963.29 1084.36 962.838 1113.7C962.751 1120.6 967.243 1119.67 971.521 1120.02C988.396 1121.31 999.326 1129.85 1003.74 1146.2C1004.68 1149.63 1004.86 1153.72 1010.35 1151.54C1017.1 1151.63 1023.84 1151.63 1030.6 1151.9C1048.86 1152.7 1063.8 1165.48 1067.13 1183.24C1067.94 1187.47 1068.93 1191.96 1068.35 1196.11C1066.55 1208.79 1070.24 1215.52 1084.54 1215.87C1094.35 1216.09 1101.6 1223.26 1108.7 1229.59C1109.29 1231.77 1109.97 1233.95 1112.31 1234.98C1117.35 1243.69 1119.73 1253.18 1119.73 1263.16C1119.78 1350.99 1119.78 1438.83 1119.64 1526.66C1119.59 1546.25 1111.99 1563.34 1100.83 1579.11C1078.2 1599.54 1060.02 1602.3 1020.97 1602.71C1005.49 1602.88 994.468 1602.71 973.593 1602.74C969.275 1602.74 963.06 1601 963.108 1608.66C963.243 1629.09 963.243 1649.54 963.29 1669.93C963.56 1674.82 963.243 1676.65 963.195 1680.74ZM591.872 969.77C591.961 986.019 591.961 986.019 608.114 986.019C649.822 986.019 691.531 986.064 733.239 985.975C738.278 985.975 743.678 987.266 748.042 983.304C748.627 970.304 742.643 966.832 729.55 967.143C687.796 968.123 646.043 967.455 604.244 967.588C600.105 967.588 595.426 965.985 591.872 969.77ZM633.31 1688.75C626.831 1688.58 625.571 1691.79 629.306 1697.17C640.328 1712.98 649.507 1728.91 660.62 1744.68C667.189 1753.35 672.724 1753.53 678.843 1745.52C690.766 1727.31 699.09 1712.89 710.428 1695.43C712.587 1692.14 711.418 1688.89 706.963 1689.02C694.411 1689.43 643.523 1688.98 633.31 1688.75ZM255.46 1267.56C255.37 1296.27 255.145 1325.03 255.145 1353.75C255.145 1408.86 255.64 1463.98 255.19 1519.09C255.01 1543.27 272.422 1566.24 300.318 1563.7C317.685 1562.14 335.277 1563.08 352.78 1562.86C356.334 1562.99 359.978 1562.86 363.488 1563.26C370.147 1564.02 372.442 1561.57 372.396 1554.71C372.261 1456.5 372.307 1358.33 372.576 1260.17C372.576 1252.56 369.742 1251.05 362.768 1251.13C332.083 1251.58 301.397 1251.62 270.712 1251.71C254.56 1251.75 254.56 1251.66 255.46 1267.56ZM981.911 1562.95C1001.4 1563.13 1020.88 1563.34 1040.36 1563.39C1047.56 1563.39 1054.4 1561.57 1060.92 1558.45C1077.3 1550.57 1080.81 1536.15 1080.81 1520.07C1080.85 1438.2 1080.9 1356.33 1080.85 1274.5C1080.85 1271.39 1081.26 1268.49 1080.85 1265.42C1081.8 1250.73 1075.77 1250.24 1059.35 1251.8C1033.03 1254.29 1006.53 1254.29 980.253 1251.67C965.584 1250.2 963.06 1253.45 963.108 1264.17C963.33 1360.21 963.29 1456.23 962.79 1552.3C962.751 1562.1 965.894 1564.81 974.808 1563.48C977.149 1563.08 979.53 1563.08 981.911 1562.95ZM808.017 1483.83C816.746 1480.45 821.515 1473.64 824.89 1465.4C832.358 1447.28 831.368 1428.32 830.648 1409.44C828.849 1363.1 812.111 1322.5 778.187 1290.53C727.885 1243.2 649.642 1237.95 593.492 1265.73C516.644 1303.84 493.067 1381.62 507.51 1456.19C510.525 1471.68 519.073 1481.51 534.685 1485.21C545.484 1486.5 550.298 1493.67 553.448 1503.11C555.157 1508.28 557.992 1513.13 560.961 1517.72C586.562 1557.74 621.612 1584.05 671.104 1582.04C720.101 1580.04 756.905 1555.02 778.277 1511.49C785.251 1497.19 791.28 1485.97 808.017 1483.83ZM480.649 1500.71C478.85 1497.24 476.51 1493.94 475.295 1490.25C456.083 1431.97 459.008 1375.07 485.868 1319.47C494.462 1301.66 506.88 1284.87 520.423 1269.87C513.629 1269.34 508.994 1269.61 504.405 1269.34C499.636 1269.07 494.822 1269.43 490.053 1269.03C477.859 1267.96 473.136 1262.04 474.53 1250.15C475.925 1238.13 484.654 1236.49 494.462 1236.22C516.283 1235.55 542.379 1235.95 565.551 1235.95C578.464 1233.63 580.848 1228.78 592.142 1223.79C650.362 1198.06 709.978 1202.43 766.489 1233.63C771.123 1236.17 774.498 1236.22 781.741 1236.13C800.863 1235.81 819.49 1236 838.613 1235.9C852.29 1235.86 859.489 1241.43 859.624 1251.58C859.804 1263.6 853.145 1269.12 838.117 1269.25C830.378 1269.34 822.685 1269.25 813.327 1269.25C872.627 1336.65 881.583 1412.07 858.634 1493.63C850.085 1505.91 841.942 1518.65 824.26 1518.78C820.795 1518.82 820.165 1521.72 819.4 1524.48C814.676 1541.09 804.733 1554.62 792.27 1566.2C786.196 1571.85 786.69 1575.72 792.944 1580.04C799.513 1598.6 804.103 1617.52 802.573 1637.51C802.348 1640.59 800.639 1644.77 805.992 1645.97C815.666 1648.2 825.295 1650.65 834.968 1652.87C861.244 1658.93 887.703 1664.22 912.983 1673.75C921.667 1677 924.548 1675.63 924.548 1665.97C924.366 1455.08 924.366 1244.15 924.596 1033.25C924.596 1025.77 922.476 1024.39 915.238 1024.39C751.866 1024.66 588.542 1024.71 425.173 1024.39C414.87 1024.39 411.855 1026.18 411.9 1037.04C412.08 1158.84 411.54 1280.65 411.36 1402.45C411.225 1488.77 411.36 1575.1 411.495 1661.47C411.495 1674.42 413.025 1675.27 425.803 1671.17C436.421 1667.75 446.95 1663.87 457.748 1661.25C481.639 1655.37 505.666 1650.02 529.601 1644.55C532.931 1643.79 536.666 1644.55 535.946 1638.67C533.336 1618.24 537.43 1598.78 545.709 1580.04C551.603 1576.08 551.513 1572.34 546.744 1566.91C535.135 1553.73 522.043 1541.44 516.283 1524.12C515.744 1522.52 513.899 1520.39 512.459 1520.17C498.871 1518.25 490.727 1507.96 480.649 1500.71ZM575.944 1594.46C575.944 1611.47 575.809 1637.97 575.899 1653.23C597.586 1658.04 600.825 1672.11 609.913 1672.11C647.348 1672.06 684.782 1671.88 722.216 1672.11C738.818 1672.24 746.197 1655.05 761.269 1652.51C761.854 1652.43 762.035 1649.67 762.259 1648.11C765.049 1630.21 762.439 1612.36 762.485 1593.62C700.395 1629.9 639.159 1635.6 575.944 1594.46ZM669.979 1795.03C658.686 1826.46 648.113 1857.84 641.229 1888.38C639.834 1894.52 641.948 1896.66 648.787 1896.26C660.576 1895.6 672.409 1895.42 684.151 1896.35C693.691 1897.11 695.13 1894.03 693.195 1886.56C689.281 1871.37 686.717 1855.8 682.127 1840.83C677.583 1826.14 676.053 1813.28 669.979 1795.03ZM338.112 1190.68C338.112 1190.5 338.112 1190.32 338.112 1190.1C330.193 1190.1 322.274 1190.46 314.356 1189.97C307.831 1189.56 304.187 1191.34 305.627 1198.29C306.887 1204.39 300.408 1214.76 316.786 1213.07C329.968 1211.69 343.286 1211.29 356.469 1212.71C367.672 1213.91 371.811 1213.42 371.857 1204.66C371.991 1189.88 372.396 1189.97 357.099 1190.64C350.8 1190.9 344.456 1190.68 338.112 1190.68ZM995.5 1213.34C995.5 1213.38 995.5 1213.42 995.5 1213.47C1003.42 1213.47 1011.34 1213.34 1019.3 1213.52C1025.02 1213.65 1030.15 1213.29 1028.48 1205.59C1027.23 1199.62 1031.72 1190.32 1019.49 1190.37C1005.22 1190.41 990.865 1190.76 976.697 1189.51C965.219 1188.49 962.568 1192.5 963.195 1203.31C963.513 1209.29 968.735 1213.91 974.76 1213.47C981.602 1212.85 988.571 1213.34 995.5 1213.34Z" fill="#F7F7F7"/>
<path d="M1112.39 1235.06C1110.05 1233.99 1109.38 1231.85 1108.8 1229.67C1112.04 1230.12 1112.48 1232.39 1112.39 1235.06Z" fill="#9ECCD8"/>
<path d="M797.264 1381.17C799.694 1385.4 802.393 1389.5 804.058 1394.08C811.302 1414.12 808.287 1426.4 807.432 1428.85L807.388 1428.99C805.768 1433.8 801.448 1437.27 796.319 1437.85C781.112 1439.67 775.848 1435.35 770.628 1419.24C756.276 1374.85 719.201 1347.82 672.814 1345.07C622.647 1342.04 581.163 1376.9 566.271 1410.38C564.921 1413.45 562.537 1418.03 561.412 1420.92C556.192 1434.55 553.133 1438.56 542.919 1438.25C533.516 1437.93 525.687 1430.86 525.327 1421.55C525.102 1415.67 526.947 1409.66 528.522 1403.7C529.692 1399.17 531.447 1394.74 533.741 1390.61C543.415 1373.16 553.943 1356.55 569.465 1342.75C596.326 1318.89 627.596 1307.58 662.69 1305.66C705.524 1303.35 740.348 1321.65 771.393 1349.12C781.921 1358.42 791.235 1370.71 797.264 1381.17Z" fill="#F7F7F7"/>
<path d="M846.441 1121.85H493.517C483.934 1121.85 476.149 1114.14 476.149 1104.66C476.149 1095.18 483.934 1087.48 493.517 1087.48H846.441C856.025 1087.48 863.808 1095.18 863.808 1104.66C863.763 1114.14 856.025 1121.85 846.441 1121.85Z" fill="#F7F7F7"/>
<path d="M846.441 1196.6H493.517C483.934 1196.6 476.149 1188.89 476.149 1179.41C476.149 1169.93 483.934 1162.23 493.517 1162.23H846.441C856.025 1162.23 863.808 1169.93 863.808 1179.41C863.763 1188.89 856.025 1196.6 846.441 1196.6Z" fill="#F7F7F7"/>
<path d="M1026.05 1364.39C1037.63 1364.39 1047.02 1355.1 1047.02 1343.64C1047.02 1332.18 1037.63 1322.9 1026.05 1322.9C1014.47 1322.9 1005.09 1332.18 1005.09 1343.64C1005.09 1355.1 1014.47 1364.39 1026.05 1364.39Z" fill="#F7F7F7"/>
<path d="M306.797 1364.3C318.352 1364.3 327.719 1355.03 327.719 1343.6C327.719 1332.17 318.352 1322.9 306.797 1322.9C295.242 1322.9 285.875 1332.17 285.875 1343.6C285.875 1355.03 295.242 1364.3 306.797 1364.3Z" fill="#F7F7F7"/>
<path d="M306.797 1421.73C316.513 1421.73 324.389 1413.93 324.389 1404.32C324.389 1394.71 316.513 1386.92 306.797 1386.92C297.081 1386.92 289.205 1394.71 289.205 1404.32C289.205 1413.93 297.081 1421.73 306.797 1421.73Z" fill="#F7F7F7"/>
<path d="M306.797 1475.56C316.513 1475.56 324.389 1467.76 324.389 1458.14C324.389 1448.53 316.513 1440.74 306.797 1440.74C297.081 1440.74 289.205 1448.53 289.205 1458.14C289.205 1467.76 297.081 1475.56 306.797 1475.56Z" fill="#F7F7F7"/>
<path d="M306.797 1529.33C316.513 1529.33 324.389 1521.54 324.389 1511.92C324.389 1502.31 316.513 1494.52 306.797 1494.52C297.081 1494.52 289.205 1502.31 289.205 1511.92C289.205 1521.54 297.081 1529.33 306.797 1529.33Z" fill="#F7F7F7"/>
<path d="M1026.05 1421.11C1035.77 1421.11 1043.65 1413.32 1043.65 1403.7C1043.65 1394.09 1035.77 1386.29 1026.05 1386.29C1016.34 1386.29 1008.46 1394.09 1008.46 1403.7C1008.46 1413.32 1016.34 1421.11 1026.05 1421.11Z" fill="#F7F7F7"/>
<path d="M1026.05 1474.84C1035.77 1474.84 1043.65 1467.05 1043.65 1457.44C1043.65 1447.82 1035.77 1440.03 1026.05 1440.03C1016.34 1440.03 1008.46 1447.82 1008.46 1457.44C1008.46 1467.05 1016.34 1474.84 1026.05 1474.84Z" fill="#F7F7F7"/>
<path d="M1026.05 1527.91C1035.77 1527.91 1043.65 1520.11 1043.65 1510.5C1043.65 1500.89 1035.77 1493.09 1026.05 1493.09C1016.34 1493.09 1008.46 1500.89 1008.46 1510.5C1008.46 1520.11 1016.34 1527.91 1026.05 1527.91Z" fill="#F7F7F7"/>
<path d="M2091.31 1172.18L1969.69 633.152H2077.64L2158.14 1063.31L2230.93 633.152H2337.47L2223.93 1172.18H2091.31Z" fill="#F7F7F7"/>
<path d="M2522.37 1172.18V633.152H2697.46C2750.89 633.152 2789.35 645.047 2812.77 668.837C2836.2 692.628 2847.93 731.586 2847.93 785.766C2847.93 838.958 2835.47 878.591 2810.47 904.616C2785.54 930.64 2747.4 943.626 2696.05 943.626H2622.6V1172.18H2522.37ZM2619.78 869.086H2661.99C2693.39 869.086 2715.41 862.956 2728.09 850.697C2740.77 838.438 2747.08 817.504 2747.08 787.844C2747.08 757.975 2741.29 737.249 2729.66 725.717C2718.08 714.185 2695.95 708.367 2663.4 708.367H2619.78V869.086Z" fill="#F7F7F7"/>
<path d="M2910.5 1172.18V767.221H3000.5V833.036C3013.38 805.712 3027.16 786.234 3041.81 774.598C3056.48 762.91 3074.32 756.989 3095.46 756.729V870.488C3091.96 870.021 3088.41 869.657 3084.92 869.449C3081.42 869.242 3077.04 869.086 3071.92 869.086C3051.78 869.086 3035.77 875.06 3023.92 886.955C3012.07 898.85 3006.18 914.85 3006.18 934.9V1172.23H2910.5V1172.18Z" fill="#F7F7F7"/>
<path d="M3345.37 1172.18C3343.28 1169.17 3341.45 1164.6 3339.94 1158.52C3338.43 1152.44 3336.81 1143.93 3335.19 1132.97C3325.33 1149.34 3312.65 1161.74 3297.06 1170.26C3281.46 1178.78 3263.24 1183.04 3242.38 1183.04C3211.44 1183.04 3187.33 1172.66 3170.11 1151.88C3152.9 1131.09 3144.29 1102.27 3144.29 1065.43C3144.29 1032.09 3151.85 1005.55 3166.98 985.807C3182.11 966.067 3212.07 946.328 3256.83 926.485C3261.26 924.407 3267.63 921.602 3275.82 918.07C3312.6 902.434 3331.02 884.098 3331.02 863.112C3331.02 850.281 3327.42 840.411 3320.27 833.555C3313.13 826.699 3302.74 823.218 3289.18 823.218C3272.06 823.218 3259.49 827.79 3251.4 836.879C3243.31 845.97 3239.3 860.203 3239.3 879.578V887.63H3147.88C3147.88 842.126 3159.05 808.985 3181.49 788.207C3203.87 767.429 3239.77 757.04 3289.22 757.04C3338.69 757.04 3373.39 766.547 3393.32 785.558C3413.24 804.57 3423.21 837.867 3423.21 885.5V1114.06C3423.21 1125.27 3424.25 1135.46 3426.4 1144.71C3428.49 1153.9 3432.03 1163.1 3436.94 1172.18H3345.37ZM3237.47 724.16L3298.62 624.425H3388.62L3281.4 724.16H3237.47ZM3332.37 960.094C3297 977.807 3273 993.702 3260.48 1007.67C3247.96 1021.65 3241.69 1038.27 3241.69 1057.38C3241.69 1075.36 3245.04 1088.61 3251.72 1097.12C3258.39 1105.65 3268.88 1109.9 3283.18 1109.9C3299.56 1109.9 3311.87 1102.79 3320.11 1088.55C3328.31 1074.32 3332.43 1052.97 3332.43 1024.5V960.094H3332.37Z" fill="#F7F7F7"/>
<path d="M3758.49 1013.28C3758.69 1016.09 3758.9 1019.05 3759 1022.22C3759.11 1025.39 3759.16 1029.96 3759.16 1036.04C3759.16 1086.22 3748.46 1123.25 3726.97 1147.14C3705.53 1171.04 3672.29 1183.03 3627.32 1183.03C3576.24 1183.03 3540.56 1167.98 3520.25 1137.9C3499.96 1107.83 3489.84 1051.77 3489.84 969.911C3489.84 888.253 3499.96 832.256 3520.25 801.92C3540.56 771.585 3576.19 756.417 3627.32 756.417C3672.09 756.417 3705.11 767.481 3726.45 789.662C3747.79 811.842 3758.43 846.126 3758.43 892.565V906.901H3668.43V897.811C3668.43 873.293 3665.25 855.684 3658.93 844.984C3652.62 834.231 3642.29 828.881 3628 828.881C3613.44 828.881 3602.95 834.126 3596.54 844.619C3590.07 855.113 3586.88 872.619 3586.88 897.136V1036.82C3586.88 1064.61 3589.91 1083.93 3596.01 1094.95C3602.12 1105.91 3612.55 1111.42 3627.32 1111.42C3643.23 1111.42 3654.34 1105.12 3660.55 1092.49C3666.77 1079.88 3669.9 1056.35 3669.9 1021.8V1013.08L3758.49 1013.28Z" fill="#F7F7F7"/>
<path d="M3928.31 1022.37V1049.7C3928.31 1071.41 3930.35 1085.18 3934.47 1091C3938.59 1096.81 3946.11 1099.72 3957.16 1099.72C3959.72 1099.72 3961.81 1099.67 3963.32 1099.57C3964.84 1099.46 3966.19 1099.41 3967.39 1099.41V1172.23C3953.77 1173.64 3943.18 1174.57 3935.57 1175.04C3927.95 1175.51 3921.79 1175.72 3917.09 1175.72C3885.48 1175.72 3863.72 1169.49 3851.87 1157.02C3840.04 1144.54 3834.14 1118.79 3834.14 1079.82V836.932H3797.56V767.273H3834.14V656.683H3928.36V767.273H3967.39V836.932H3928.36V1022.37H3928.31Z" fill="#F7F7F7"/>
<path d="M4024.26 717.146V633.152H4117.76V717.146H4024.26ZM4024.26 1172.18V767.221H4117.76V1172.18H4024.26Z" fill="#F7F7F7"/>
<path d="M4455.64 1013.28C4455.85 1016.09 4456.05 1019.05 4456.16 1022.22C4456.26 1025.39 4456.32 1029.96 4456.32 1036.04C4456.32 1086.22 4445.62 1123.25 4424.12 1147.14C4402.68 1171.04 4369.45 1183.03 4324.47 1183.03C4273.39 1183.03 4237.71 1167.98 4217.41 1137.9C4197.12 1107.83 4186.99 1051.77 4186.99 969.911C4186.99 888.253 4197.12 832.256 4217.41 801.92C4237.71 771.585 4273.34 756.417 4324.47 756.417C4369.24 756.417 4402.26 767.481 4423.61 789.662C4444.94 811.842 4455.58 846.126 4455.58 892.565V906.901H4365.58V897.811C4365.58 873.293 4362.4 855.684 4356.08 844.984C4349.78 834.231 4339.44 828.881 4325.15 828.881C4310.6 828.881 4300.1 834.126 4293.69 844.619C4287.22 855.113 4284.03 872.619 4284.03 897.136V1036.82C4284.03 1064.61 4287.06 1083.93 4293.16 1094.95C4299.28 1105.91 4309.7 1111.42 4324.47 1111.42C4340.38 1111.42 4351.5 1105.12 4357.7 1092.49C4363.92 1079.88 4367.05 1056.35 4367.05 1021.8V1013.08L4455.64 1013.28Z" fill="#F7F7F7"/>
<path d="M4718.59 1172.18C4716.51 1169.17 4714.68 1164.6 4713.17 1158.52C4711.65 1152.45 4710.04 1143.94 4708.42 1132.97C4698.57 1149.34 4685.88 1161.75 4670.28 1170.26C4654.68 1178.78 4636.47 1183.03 4615.61 1183.03C4584.66 1183.03 4560.56 1172.66 4543.35 1151.88C4526.12 1131.09 4517.52 1102.27 4517.52 1065.43C4517.52 1032.09 4525.08 1005.55 4540.22 985.807C4555.34 966.068 4585.29 946.328 4630.06 926.486C4634.5 924.408 4640.86 921.602 4649.05 918.07C4685.83 902.434 4704.25 884.099 4704.25 863.113C4704.25 850.282 4700.65 840.412 4693.5 833.555C4686.35 826.699 4675.97 823.218 4662.4 823.218C4645.29 823.218 4632.72 827.79 4624.63 836.88C4616.55 845.971 4612.52 860.204 4612.52 879.579V887.631H4521.12C4521.12 842.126 4532.28 808.985 4554.71 788.208C4577.1 767.429 4612.99 757.041 4662.46 757.041C4711.92 757.041 4746.61 766.547 4766.55 785.559C4786.48 804.57 4796.44 837.868 4796.44 885.5V1114.06C4796.44 1125.27 4797.48 1135.46 4799.62 1144.71C4801.71 1153.9 4805.26 1163.1 4810.16 1172.18H4718.59ZM4705.61 960.094C4670.24 977.807 4646.23 993.703 4633.71 1007.67C4621.19 1021.65 4614.93 1038.27 4614.93 1057.38C4614.93 1075.36 4618.27 1088.61 4624.94 1097.12C4631.62 1105.65 4642.11 1109.9 4656.4 1109.9C4672.79 1109.9 4685.1 1102.79 4693.35 1088.55C4701.54 1074.32 4705.65 1052.97 4705.65 1024.5V960.094H4705.61Z" fill="#F7F7F7"/>
<path d="M1576.24 1966.95V1427.91H1751.34C1804.77 1427.91 1843.21 1439.8 1866.64 1463.6C1890.07 1487.39 1901.81 1526.34 1901.81 1580.53C1901.81 1633.71 1889.34 1673.35 1864.35 1699.37C1839.4 1725.4 1801.27 1738.38 1749.93 1738.38H1676.47V1966.95H1576.24ZM1673.65 1663.84H1715.85C1747.27 1663.84 1769.28 1657.72 1781.96 1645.45C1794.64 1633.2 1800.96 1612.26 1800.96 1582.6C1800.96 1552.74 1795.17 1532.01 1783.52 1520.48C1771.94 1508.94 1749.83 1503.12 1717.27 1503.12H1673.65V1663.84Z" fill="#F7F7F7"/>
<path d="M1971.57 1966.95V1561.98H2061.57V1627.8C2074.45 1600.48 2088.22 1580.99 2102.88 1569.36C2117.55 1557.66 2135.39 1551.74 2156.53 1551.49V1665.24C2153.03 1664.78 2149.48 1664.41 2145.98 1664.21C2142.49 1664 2138.11 1663.84 2132.99 1663.84C2112.85 1663.84 2096.84 1669.81 2084.99 1681.71C2073.15 1693.62 2067.26 1709.61 2067.26 1729.65V1967H1971.57V1966.95Z" fill="#F7F7F7"/>
<path d="M2209.06 1764.62C2209.06 1682.96 2219.6 1626.97 2240.68 1596.63C2261.76 1566.3 2298.91 1551.12 2352.13 1551.12C2405.55 1551.12 2442.81 1566.3 2463.93 1596.63C2485.01 1626.97 2495.55 1682.96 2495.55 1764.62C2495.55 1846.28 2485.01 1902.22 2463.93 1932.45C2442.85 1962.68 2405.55 1977.8 2352.13 1977.8C2298.91 1977.8 2261.76 1962.68 2240.68 1932.45C2219.6 1902.27 2209.06 1846.33 2209.06 1764.62ZM2305.38 1760.41V1769.87C2305.38 1832.61 2308.56 1871.01 2314.87 1885.03C2321.18 1899.05 2333.4 1906.01 2351.45 1906.01C2370.18 1906.01 2382.85 1899.41 2389.43 1886.22C2396 1873.03 2399.29 1838.79 2399.29 1783.48V1767.01V1743.89C2399.29 1690.91 2395.95 1657.61 2389.28 1643.95C2382.59 1630.29 2370.23 1623.49 2352.17 1623.49C2334.38 1623.49 2322.12 1629.72 2315.45 1642.18C2308.77 1654.65 2305.42 1684.73 2305.42 1732.3V1760.41H2305.38Z" fill="#F7F7F7"/>
<path d="M2581.17 1966.95V1631.63H2544.6V1561.99H2581.17V1521.72C2581.17 1486.97 2587.85 1462.29 2601.2 1447.7C2614.56 1433.11 2636.94 1425.83 2668.35 1425.83C2674.66 1425.83 2681.6 1425.98 2689.11 1426.35C2696.63 1426.71 2704.83 1427.23 2713.75 1427.91V1498.24C2712.55 1498.24 2710.93 1498.14 2708.84 1497.88C2706.75 1497.67 2705.34 1497.52 2704.61 1497.52C2694.29 1497.52 2686.92 1499.59 2682.44 1503.8C2678.01 1508 2675.76 1514.86 2675.76 1524.47V1561.93H2713.75V1631.58H2675.76V1966.89H2581.17V1966.95Z" fill="#F7F7F7"/>
<path d="M2957.19 1827.98H3045.78C3045.78 1829.87 3045.89 1832.56 3046.15 1836.04C3046.36 1839.52 3046.52 1842.12 3046.52 1843.74C3046.52 1889.91 3035.45 1923.83 3013.28 1945.38C2991.15 1966.95 2956.05 1977.75 2907.99 1977.75C2882.69 1977.75 2861.46 1974.59 2844.34 1968.29C2827.22 1962 2813.19 1952.19 2802.13 1938.9C2788.98 1923.26 2779.75 1903.52 2774.37 1879.72C2769 1855.93 2766.28 1813.14 2766.28 1751.26C2766.28 1702.02 2768.63 1666.8 2773.33 1645.56C2778.03 1624.32 2786.01 1606.96 2797.23 1593.4C2808.96 1579.38 2824.25 1568.84 2843.08 1561.72C2861.97 1554.6 2884.41 1551.03 2910.39 1551.03C2935.49 1551.03 2957.09 1554.81 2975.25 1562.4C2993.4 1569.98 3008.48 1581.47 3020.42 1596.89C3030.49 1610.45 3037.7 1627.38 3042.03 1647.79C3046.36 1668.21 3048.55 1701.19 3048.55 1746.7V1777.5H2863.65C2863.18 1780.51 2862.86 1783.74 2862.75 1787.11C2862.65 1790.49 2862.6 1795.94 2862.6 1803.37C2862.6 1841.86 2866.15 1868.81 2873.29 1884.25C2880.44 1899.67 2892.6 1907.36 2909.66 1907.36C2926.31 1907.36 2938.36 1901.13 2945.87 1888.66C2953.43 1876.25 2957.19 1855.99 2957.19 1827.98ZM2862.6 1713.19H2954V1696.05C2954 1668.26 2950.62 1649.14 2943.83 1638.66C2937.05 1628.15 2925.1 1622.91 2907.99 1622.91C2891.35 1622.91 2879.51 1628.31 2872.46 1639.17C2865.41 1650.02 2861.93 1668.99 2861.93 1696.05C2862.39 1703.74 2862.6 1709.46 2862.6 1713.19Z" fill="#F7F7F7"/>
<path d="M3113.45 1832.2H3198.19V1843.74C3198.19 1867.06 3201.73 1883.63 3208.94 1893.44C3216.08 1903.26 3227.98 1908.15 3244.62 1908.15C3257.76 1908.15 3268.05 1904.66 3275.56 1897.65C3283.07 1890.64 3286.83 1880.97 3286.83 1868.62C3286.83 1853.24 3271.7 1835.47 3241.49 1815.42C3233.77 1810.28 3227.77 1806.33 3223.54 1803.52C3222.6 1802.86 3221.09 1801.76 3218.95 1800.35C3150.03 1753.24 3115.6 1707.01 3115.6 1661.76C3115.6 1625.82 3126.76 1598.39 3149.19 1579.53C3171.58 1560.63 3204.08 1551.18 3246.76 1551.18C3288.03 1551.18 3318.96 1561.62 3339.57 1582.5C3360.18 1603.39 3370.52 1635.06 3370.52 1677.51V1685.91H3287.56V1677.51C3287.56 1657.93 3283.8 1643.54 3276.29 1634.45C3268.77 1625.35 3256.93 1620.78 3240.76 1620.78C3229.02 1620.78 3219.68 1624 3212.64 1630.4C3205.59 1636.83 3202.1 1645.25 3202.1 1655.79C3202.1 1665.61 3205.17 1674.44 3211.44 1682.39C3217.64 1690.34 3231.52 1701.51 3253.13 1716C3258.03 1719.27 3265.17 1724.05 3274.56 1730.33C3342.76 1775.16 3376.88 1820.04 3376.88 1865.08C3376.88 1901.03 3365.35 1928.77 3342.23 1948.4C3319.12 1968.03 3286.31 1977.8 3243.63 1977.8C3198.87 1977.8 3165.89 1967.31 3144.65 1946.32C3123.42 1925.34 3112.82 1892.56 3112.82 1847.99C3112.82 1846.38 3112.94 1843.78 3113.19 1840.31C3113.35 1836.72 3113.45 1834.07 3113.45 1832.2Z" fill="#F7F7F7"/>
<path d="M3451.13 1511.91V1427.91H3544.63V1511.91H3451.13ZM3451.13 1966.95V1561.99H3544.63V1966.95H3451.13Z" fill="#F7F7F7"/>
<path d="M3621.11 1764.62C3621.11 1682.96 3631.65 1626.97 3652.73 1596.63C3673.81 1566.3 3710.96 1551.12 3764.17 1551.12C3817.6 1551.12 3854.85 1566.3 3875.98 1596.63C3897.06 1626.97 3907.6 1682.96 3907.6 1764.62C3907.6 1846.28 3897.06 1902.22 3875.98 1932.45C3854.9 1962.68 3817.6 1977.8 3764.17 1977.8C3710.96 1977.8 3673.81 1962.68 3652.73 1932.45C3631.65 1902.27 3621.11 1846.33 3621.11 1764.62ZM3717.43 1760.41V1769.87C3717.43 1832.61 3720.6 1871.01 3726.92 1885.03C3733.23 1899.05 3745.44 1906.01 3763.49 1906.01C3782.22 1906.01 3794.9 1899.41 3801.48 1886.22C3808.05 1873.03 3811.34 1838.79 3811.34 1783.48V1767.01V1743.89C3811.34 1690.91 3808 1657.61 3801.32 1643.95C3794.64 1630.29 3782.28 1623.49 3764.22 1623.49C3746.43 1623.49 3734.17 1629.72 3727.5 1642.18C3720.81 1654.65 3717.47 1684.73 3717.47 1732.3V1760.41H3717.43Z" fill="#F7F7F7"/>
<path d="M3984.77 1966.95V1561.99H4076.85V1602.91C4086.71 1585.87 4098.77 1572.99 4113.06 1564.22C4127.36 1555.49 4143.64 1551.07 4161.95 1551.07C4191.48 1551.07 4214.13 1559.49 4229.77 1576.26C4245.49 1593.05 4253.31 1617.2 4253.31 1648.73V1966.89H4162.63V1695.33C4162.63 1671.54 4159.6 1654.81 4153.5 1645.1C4147.4 1635.43 4137.22 1630.55 4122.92 1630.55C4107.22 1630.55 4095.95 1636.52 4089.17 1648.42C4082.39 1660.32 4078.99 1680.51 4078.99 1708.98V1966.95H3984.77Z" fill="#F7F7F7"/>
<path d="M4533.38 1966.95C4531.29 1963.94 4529.47 1959.35 4527.96 1953.29C4526.44 1947.21 4524.82 1938.68 4523.21 1927.73C4513.34 1944.09 4500.66 1956.5 4485.06 1965.02C4469.46 1973.54 4451.26 1977.8 4430.38 1977.8C4399.45 1977.8 4375.34 1967.4 4358.13 1946.64C4340.91 1925.86 4332.3 1897.02 4332.3 1860.2C4332.3 1826.85 4339.87 1800.3 4354.99 1780.57C4370.12 1760.83 4400.07 1741.09 4444.84 1721.24C4449.27 1719.17 4455.64 1716.36 4463.83 1712.83C4500.61 1697.19 4519.03 1678.86 4519.03 1657.87C4519.03 1645.04 4515.43 1635.17 4508.29 1628.31C4501.13 1621.46 4490.75 1617.98 4477.19 1617.98C4460.07 1617.98 4447.5 1622.55 4439.41 1631.63C4431.33 1640.73 4427.31 1654.96 4427.31 1674.34V1682.39H4335.9C4335.9 1636.88 4347.06 1603.74 4369.49 1582.97C4391.88 1562.19 4427.78 1551.8 4477.24 1551.8C4526.7 1551.8 4561.39 1561.31 4581.32 1580.32C4601.26 1599.33 4611.22 1632.63 4611.22 1680.25V1908.82C4611.22 1920.04 4612.27 1930.22 4614.4 1939.47C4616.49 1948.66 4620.04 1957.86 4624.94 1966.95H4533.38ZM4520.39 1754.85C4485.01 1772.57 4461.01 1788.46 4448.49 1802.43C4435.97 1816.41 4429.71 1833.04 4429.71 1852.15C4429.71 1870.12 4433.05 1883.37 4439.72 1891.88C4446.41 1900.41 4456.89 1904.66 4471.18 1904.66C4487.57 1904.66 4499.88 1897.54 4508.13 1883.31C4516.31 1869.07 4520.44 1847.73 4520.44 1819.27V1754.85H4520.39Z" fill="#F7F7F7"/>
<path d="M4696.68 1966.95V1427.91H4790.18V1966.95H4696.68Z" fill="#F7F7F7"/>
</g>
</g>
<defs>
<filter id="filter0_f_401_96" x="-3" y="112" width="4816.16" height="2192.94" filterUnits="userSpaceOnUse" color-interpolation-filters="sRGB">
<feFlood flood-opacity="0" result="BackgroundImageFix"/>
<feBlend mode="normal" in="SourceGraphic" in2="BackgroundImageFix" result="shape"/>
<feGaussianBlur stdDeviation="1.5" result="effect1_foregroundBlur_401_96"/>
</filter>
<filter id="filter1_f_401_96" x="-1.06958" y="112" width="1342.55" height="425.976" filterUnits="userSpaceOnUse" color-interpolation-filters="sRGB">
<feFlood flood-opacity="0" result="BackgroundImageFix"/>
<feBlend mode="normal" in="SourceGraphic" in2="BackgroundImageFix" result="shape"/>
<feGaussianBlur stdDeviation="1.5" result="effect1_foregroundBlur_401_96"/>
</filter>
</defs>
</svg>
