<svg width="2848" height="2844" viewBox="0 0 2848 2844" fill="none" xmlns="http://www.w3.org/2000/svg">
<g clip-path="url(#clip0_401_96)">
<mask id="mask0_401_96" style="mask-type:luminance" maskUnits="userSpaceOnUse" x="-427" y="-1803" width="3691" height="5574">
<path d="M3264 -1802.22H-427V3770.59H3264V-1802.22Z" fill="white"/>
</mask>
<g mask="url(#mask0_401_96)">
<g filter="url(#filter0_f_401_96)">
<path d="M3260.13 3013.02C3249.19 3103.27 3223.46 3188.5 3156 3258.33C3075.9 3341.36 2969.62 3384.43 2857.14 3415.68C2674.49 3466.25 2487.37 3501.3 2302.56 3544.39C2099.21 3591.83 1895.13 3636.64 1691.76 3684.6C1608.06 3704.36 1431.88 3745.07 1427.42 3745.07C1424.26 3745.07 1373.63 3730.3 1351.05 3725.03C1073.05 3660.86 794.468 3598.82 516.894 3533.6C329.926 3489.72 140.514 3453.87 -44.1502 3401.71C-174.308 3364.94 -289.076 3306.17 -360.843 3194.04C-415.926 3107.88 -427 3012.88 -427 2915.25C-426.569 1793.8 -426.425 636.407 -427 -485C-427 -485 3223.74 -484.604 3262 -484.341C3262 -484.341 3261.57 1815.01 3261.57 2949.1C3261.42 2957.8 3260.84 3006.57 3260.13 3013.02ZM2891.65 -157.705C2872.67 -158.1 2847.65 -157.705 2828.68 -157.705C1883.47 -157.705 938.431 -157.705 -6.75707 -157.705C-60.6902 -157.705 -63.1335 -161.658 -63.1335 -111.323C-63.1335 590.043 -60.9769 1295.22 -60.2588 1996.58C-59.9696 2275.54 -64.2854 2554.47 -57.095 2833.29C-53.9311 2955.3 4.74912 3045.02 129.297 3094.57C157.199 3105.63 184.811 3117.74 213.433 3127.1C344.165 3169.94 478.925 3199.18 613.541 3229.87C840.201 3281.41 1067.15 3332 1294.1 3382.32C1378.66 3401.19 1457.48 3403.8 1543.34 3382.86C1935.25 3287.72 2332.91 3212.63 2715.19 3085.35C2839.03 3044.09 2896.7 2948.44 2893.37 2798.76C2893.37 1841.66 2891.52 -137.413 2891.52 -142.024L2891.65 -157.705Z" fill="#F7F7F7"/>
<path d="M2228.08 2169.37C2228.08 2178.31 2224.49 2186.87 2217.43 2193.08C2215.94 2194.33 2214.56 2195.46 2213.33 2196.59C2171.52 2234.98 2202.55 2266.72 2223.51 2299.58C2258.98 2355.14 2285.76 2413.18 2281.8 2479.47C2280.68 2498.1 2283.66 2518.54 2266.66 2532.66C2251.03 2545.76 2232.17 2555.57 2209.72 2548.37C2183.32 2539.77 2174.89 2518.45 2173.14 2496.17C2169.18 2444.8 2157.52 2395.79 2131.48 2349.71C2081.25 2260.62 1996.91 2215.69 1888.51 2199.06C1848.7 2192.97 1809.88 2183.04 1771.68 2170.95C1754.81 2165.65 1745.14 2168.26 1737.7 2178.87C1726.66 2194.33 1711.03 2206.87 1692.92 2209.69C1648.65 2216.68 1628.18 2244.7 1607.97 2276.31C1583.78 2314.02 1556.87 2350.29 1530.08 2386.43C1518.79 2401.65 1516.31 2415.79 1522.02 2433.74C1540 2490.41 1589.24 2656.99 1599.04 2697.97C1599.66 2700.69 1601.76 2703.07 1604.74 2703.97C1608.46 2705.09 1614.79 2705.78 1625.08 2703.97C1738.69 2684.89 1847.33 2651.11 1955.11 2614.64C1979.42 2606.41 2001.25 2609.09 2017.38 2628.08C2031.14 2644.33 2032.87 2663.53 2021.58 2681.71C2012.04 2697.09 1995.42 2705.89 1977.93 2711.87C1935.02 2726.57 1891.98 2740.78 1848.45 2754.1C1649.39 2815.42 1444.5 2824.01 1237.13 2807.64C1174 2802.67 1110.88 2792.84 1049.61 2780.65C969.489 2764.71 892.718 2734.57 814.706 2710.29C808.63 2708.39 803.173 2704.53 797.592 2701.49C767.827 2685.12 755.795 2656.99 768.446 2633.39C781.344 2609.44 808.38 2601.44 842.239 2612.73C879.198 2625.16 915.538 2639.48 952.869 2650.89C1037.21 2676.63 1124.77 2690.65 1211.58 2707.7C1228.82 2711.07 1226.59 2700.01 1228.33 2692.44C1246.43 2613.3 1271.36 2535.37 1300.39 2459.05C1313.28 2425.27 1309.19 2400.76 1285.75 2372.53C1251.89 2331.64 1220.27 2286.15 1189.63 2243.12C1180.58 2230.35 1169.17 2220.54 1152.3 2215.57C1139.03 2211.6 1122.04 2206.75 1115.47 2197.27C1091.16 2162.38 1060.27 2166.78 1024.68 2177.74C964.529 2196.37 900.903 2203.95 841.373 2224.82C749.841 2257.02 698.247 2322.63 664.76 2402.12C652.606 2430.92 646.902 2461.73 644.793 2492.9C644.174 2502.74 641.321 2512.68 637.599 2522.05C629.786 2541.81 613.54 2554.02 590.595 2553.78C567.153 2553.55 552.643 2540.8 548.179 2519.21C540.985 2484.44 541.232 2449.2 551.402 2415.44C568.766 2358.2 587.742 2300.92 629.786 2253.28C637.227 2244.81 633.258 2233.75 628.795 2228.32C605.974 2200.54 603.246 2167.91 597.417 2135.85C602.996 2086.26 598.284 2036.48 599.774 1986.77C600.268 1969.39 587.617 1971.08 575.588 1971.2C524.241 1971.53 472.771 1970.63 421.426 1972.66C318.734 1970.63 244.07 1955.16 187.516 1879.5C169.161 1840.87 169.036 1800.22 169.161 1759.1C169.408 1541.5 170.152 1323.92 168.417 1106.18C167.92 1044.31 209.22 995.849 255.73 989.755C275.2 987.263 307.075 986.367 307.696 937.014C308.687 858.204 348.746 829.858 431.346 828.942C470.167 830.87 491.003 821.836 495.22 786.267C516.677 761.989 541.729 745.051 578.813 749.101C593.695 750.795 600.393 742.442 600.268 729.009C599.524 655.495 599.027 582.078 598.284 508.577C602.005 433.03 638.343 403.218 721.936 403.895C832.813 404.798 943.693 403.895 1054.57 404.46C1072.31 404.573 1080.37 401.072 1079.13 382.892C1074.04 306.101 1133.45 261.27 1210.22 259.802C1351.73 257.09 1493.37 256.526 1634.88 259.238C1698.38 260.48 1759.03 298.084 1755.31 373.744C1754.07 398.249 1762.13 405.591 1789.66 405.137C1893.84 403.331 1998.15 404.349 2102.45 403.669C2170.91 403.218 2224.12 446.47 2229.2 507.674C2228.58 582.078 2228.34 656.624 2227.1 731.034C2226.86 748.536 2239.24 746.18 2251.03 747.076C2297.55 750.347 2327.68 772.016 2339.84 813.484C2342.45 822.167 2342.93 832.564 2358.07 827.015C2376.67 827.249 2395.26 827.249 2413.88 827.93C2464.23 829.974 2505.41 862.37 2514.57 907.441C2516.83 918.168 2519.54 929.557 2517.94 940.07C2512.98 972.252 2523.15 989.307 2562.58 990.203C2589.62 990.767 2609.6 1008.95 2629.18 1024.99C2630.8 1030.52 2632.66 1036.05 2639.11 1038.66C2653.01 1060.78 2659.57 1084.84 2659.57 1110.15C2659.7 1332.93 2659.7 1555.75 2659.33 1778.53C2659.2 1828.24 2638.24 1871.58 2607.47 1911.56C2545.1 1963.39 2494.99 1970.4 2387.34 1971.43C2344.68 1971.88 2314.29 1971.43 2256.74 1971.53C2244.84 1971.53 2227.71 1967.11 2227.84 1986.54C2228.21 2038.37 2228.21 2090.23 2228.34 2141.94C2229.09 2154.36 2228.21 2158.99 2228.08 2169.37ZM1204.52 365.952C1204.76 407.17 1204.76 407.17 1249.29 407.17C1364.26 407.17 1479.23 407.285 1594.2 407.057C1608.09 407.057 1622.97 410.333 1635 400.282C1636.62 367.307 1620.12 358.5 1584.03 359.288C1468.93 361.774 1353.84 360.08 1238.62 360.417C1227.21 360.417 1214.31 356.352 1204.52 365.952ZM1318.74 2189.7C1300.88 2189.25 1297.41 2197.39 1307.7 2211.03C1338.09 2251.14 1363.39 2291.56 1394.02 2331.55C1412.13 2353.55 1427.39 2354.01 1444.25 2333.69C1477.12 2287.49 1500.07 2250.91 1531.32 2206.63C1537.27 2198.28 1534.05 2190.05 1521.77 2190.38C1487.17 2191.41 1346.89 2190.28 1318.74 2189.7ZM277.185 1121.33C276.938 1194.14 276.316 1267.09 276.316 1339.94C276.316 1479.73 277.681 1619.55 276.441 1759.34C275.944 1820.67 323.942 1878.94 400.837 1872.49C448.71 1868.54 497.204 1870.91 545.451 1870.35C555.249 1870.7 565.293 1870.35 574.969 1871.36C593.323 1873.29 599.649 1867.08 599.524 1849.67C599.152 1600.57 599.277 1351.56 600.021 1102.58C600.021 1083.26 592.208 1079.43 572.984 1079.64C488.4 1080.77 403.813 1080.89 319.229 1081.1C274.704 1081.22 274.704 1080.99 277.185 1121.33ZM2279.67 1870.58C2333.39 1871.03 2387.08 1871.58 2440.79 1871.69C2460.64 1871.69 2479.48 1867.08 2497.46 1859.17C2542.62 1839.18 2552.29 1802.6 2552.29 1761.83C2552.4 1554.16 2552.53 1346.48 2552.4 1138.93C2552.4 1131.02 2553.52 1123.68 2552.4 1115.89C2555.01 1078.63 2538.4 1077.38 2493.13 1081.34C2420.58 1087.64 2347.52 1087.64 2275.1 1081.01C2234.67 1077.27 2227.71 1085.52 2227.84 1112.72C2228.45 1356.31 2228.34 1599.89 2226.97 1843.58C2226.86 1868.42 2235.52 1875.31 2260.09 1871.93C2266.55 1870.91 2273.11 1870.91 2279.67 1870.58ZM1800.33 1669.9C1824.39 1661.33 1837.53 1644.04 1846.84 1623.15C1867.42 1577.19 1864.7 1529.08 1862.71 1481.21C1857.75 1363.65 1811.61 1260.66 1718.1 1179.58C1579.44 1059.53 1363.76 1046.21 1208.98 1116.67C997.147 1213.33 932.158 1410.63 971.97 1599.77C980.28 1639.08 1003.84 1664.02 1046.88 1673.4C1076.65 1676.67 1089.92 1694.86 1098.6 1718.8C1103.31 1731.91 1111.12 1744.21 1119.31 1755.85C1189.88 1857.36 1286.5 1924.1 1422.92 1919C1557.99 1913.94 1659.44 1850.47 1718.35 1740.04C1737.57 1703.79 1754.19 1675.31 1800.33 1669.9ZM897.927 1712.71C892.967 1703.91 886.517 1695.54 883.167 1686.17C830.21 1538.35 838.272 1394.03 912.313 1252.99C936.002 1207.81 970.233 1165.23 1007.56 1127.19C988.837 1125.82 976.061 1126.5 963.411 1125.82C950.265 1125.14 936.995 1126.06 923.848 1125.04C890.236 1122.34 877.216 1107.31 881.06 1077.15C884.904 1046.66 908.965 1042.5 936.002 1041.81C996.154 1040.12 1068.09 1041.13 1131.96 1041.13C1167.56 1035.25 1174.13 1022.95 1205.26 1010.29C1365.75 945.035 1530.08 956.113 1685.85 1035.25C1698.63 1041.7 1707.93 1041.81 1727.9 1041.58C1780.61 1040.78 1831.95 1041.25 1884.67 1041.02C1922.37 1040.9 1942.21 1055.03 1942.58 1080.77C1943.08 1111.26 1924.72 1125.26 1883.3 1125.61C1861.97 1125.82 1840.76 1125.61 1814.96 1125.61C1978.43 1296.56 2003.12 1487.86 1939.85 1694.74C1916.29 1725.91 1893.84 1758.23 1845.1 1758.54C1835.55 1758.66 1833.81 1766 1831.71 1773.01C1818.68 1815.14 1791.27 1849.46 1756.92 1878.82C1740.18 1893.17 1741.54 1902.98 1758.78 1913.94C1776.89 1961.02 1789.54 2009.01 1785.32 2059.72C1784.7 2067.53 1779.99 2078.14 1794.75 2081.18C1821.41 2086.82 1847.95 2093.03 1874.62 2098.68C1947.05 2114.04 2019.98 2127.47 2089.67 2151.64C2113.61 2159.89 2121.55 2156.4 2121.55 2131.89C2121.05 1596.97 2121.05 1061.93 2121.68 526.985C2121.68 508.012 2115.84 504.512 2095.88 504.512C1645.55 505.189 1195.34 505.302 745.004 504.512C716.604 504.512 708.294 509.029 708.417 536.583C708.913 845.549 707.426 1154.52 706.929 1463.47C706.557 1682.44 706.929 1901.4 707.301 2120.48C707.301 2153.35 711.519 2155.49 746.741 2145.09C776.012 2136.41 805.033 2126.58 834.798 2119.92C900.656 2105.01 966.885 2091.46 1032.87 2077.58C1042.04 2075.65 1052.34 2077.58 1050.35 2062.66C1043.16 2010.84 1054.45 1961.48 1077.27 1913.94C1093.51 1903.89 1093.27 1894.41 1080.12 1880.63C1048.12 1847.2 1012.03 1816.03 996.154 1772.09C994.666 1768.04 989.581 1762.63 985.612 1762.06C948.156 1757.2 925.708 1731.11 897.927 1712.71ZM1160.61 1950.52C1160.61 1993.66 1160.24 2060.87 1160.49 2099.59C1220.27 2111.78 1229.2 2147.47 1254.25 2147.47C1357.44 2147.35 1460.63 2146.9 1563.81 2147.47C1609.58 2147.8 1629.92 2104.21 1671.47 2097.76C1673.08 2097.55 1673.58 2090.56 1674.19 2086.59C1681.89 2041.21 1674.69 1995.92 1674.82 1948.38C1503.66 2040.41 1334.87 2054.87 1160.61 1950.52ZM1419.82 2459.26C1388.69 2538.99 1359.55 2618.59 1340.57 2696.06C1336.73 2711.64 1342.55 2717.07 1361.41 2716.04C1393.9 2714.36 1426.52 2713.91 1458.89 2716.27C1485.18 2718.2 1489.15 2710.39 1483.82 2691.45C1473.03 2652.92 1465.96 2613.42 1453.31 2575.45C1440.78 2538.19 1436.56 2505.56 1419.82 2459.26ZM505.017 926.306C505.017 925.839 505.017 925.391 505.017 924.826C483.19 924.826 461.361 925.741 439.534 924.495C421.549 923.464 411.504 927.98 415.473 945.6C418.945 961.077 401.085 987.38 446.231 983.097C482.569 979.592 519.281 978.58 555.62 982.182C586.501 985.238 597.912 983.992 598.036 961.759C598.408 924.262 599.524 924.495 557.356 926.189C539.992 926.851 522.506 926.306 505.017 926.306ZM2317.13 983.778C2317.13 983.895 2317.13 983.992 2317.13 984.109C2338.97 984.109 2360.8 983.778 2382.75 984.226C2398.5 984.557 2412.64 983.661 2408.04 964.114C2404.58 948.987 2416.97 925.391 2383.25 925.508C2343.93 925.625 2304.35 926.501 2265.3 923.347C2233.66 920.738 2226.35 930.92 2228.08 958.352C2228.96 973.498 2243.35 985.238 2259.96 984.109C2278.82 982.532 2298.03 983.778 2317.13 983.778Z" fill="#F7F7F7"/>
<path d="M2639.35 1038.87C2632.9 1036.17 2631.04 1030.74 2629.44 1025.21C2638.37 1026.36 2639.59 1032.1 2639.35 1038.87Z" fill="#9ECCD8"/>
<path d="M1770.69 1409.5C1777.38 1420.21 1784.83 1430.63 1789.41 1442.25C1809.38 1493.06 1801.07 1524.23 1798.72 1530.44L1798.59 1530.79C1794.13 1542.98 1782.22 1551.78 1768.08 1553.26C1726.16 1557.87 1711.65 1546.93 1697.26 1506.05C1657.7 1393.46 1555.5 1324.91 1427.63 1317.92C1289.35 1310.23 1175 1398.66 1133.95 1483.58C1130.22 1491.37 1123.65 1502.99 1120.55 1510.33C1106.16 1544.89 1097.73 1555.07 1069.58 1554.27C1043.66 1553.47 1022.08 1535.52 1021.08 1511.93C1020.46 1497.02 1025.55 1481.77 1029.89 1466.64C1033.11 1455.14 1037.95 1443.92 1044.28 1433.43C1070.94 1389.18 1099.96 1347.05 1142.75 1312.04C1216.79 1251.51 1302.99 1222.84 1399.73 1217.97C1517.8 1212.09 1613.8 1258.52 1699.37 1328.2C1728.39 1351.8 1754.07 1382.97 1770.69 1409.5Z" fill="#F7F7F7"/>
<path d="M1906.24 751.709H933.397C906.979 751.709 885.522 732.163 885.522 708.119C885.522 684.055 906.979 664.528 933.397 664.528H1906.24C1932.66 664.528 1954.12 684.055 1954.12 708.119C1953.99 732.163 1932.66 751.709 1906.24 751.709Z" fill="#F7F7F7"/>
<path d="M1906.24 941.316H933.397C906.979 941.316 885.522 921.77 885.522 897.706C885.522 873.662 906.979 854.135 933.397 854.135H1906.24C1932.66 854.135 1954.12 873.662 1954.12 897.706C1953.99 921.77 1932.66 941.316 1906.24 941.316Z" fill="#F7F7F7"/>
<path d="M2401.35 1366.92C2433.27 1366.92 2459.15 1343.37 2459.15 1314.3C2459.15 1285.23 2433.27 1261.68 2401.35 1261.68C2369.42 1261.68 2343.56 1285.23 2343.56 1314.3C2343.56 1343.37 2369.42 1366.92 2401.35 1366.92Z" fill="#F7F7F7"/>
<path d="M418.694 1366.69C450.546 1366.69 476.366 1343.19 476.366 1314.18C476.366 1285.19 450.546 1261.68 418.694 1261.68C386.844 1261.68 361.024 1285.19 361.024 1314.18C361.024 1343.19 386.844 1366.69 418.694 1366.69Z" fill="#F7F7F7"/>
<path d="M418.697 1512.38C445.478 1512.38 467.189 1492.6 467.189 1468.22C467.189 1443.83 445.478 1424.07 418.697 1424.07C391.914 1424.07 370.203 1443.83 370.203 1468.22C370.203 1492.6 391.914 1512.38 418.697 1512.38Z" fill="#F7F7F7"/>
<path d="M418.697 1648.91C445.478 1648.91 467.189 1629.13 467.189 1604.74C467.189 1580.34 445.478 1560.6 418.697 1560.6C391.914 1560.6 370.203 1580.34 370.203 1604.74C370.203 1629.13 391.914 1648.91 418.697 1648.91Z" fill="#F7F7F7"/>
<path d="M418.697 1785.31C445.478 1785.31 467.189 1765.55 467.189 1741.15C467.189 1716.78 445.478 1697.02 418.697 1697.02C391.914 1697.02 370.203 1716.78 370.203 1741.15C370.203 1765.55 391.914 1785.31 418.697 1785.31Z" fill="#F7F7F7"/>
<path d="M2401.35 1510.8C2428.13 1510.8 2449.85 1491.04 2449.85 1466.64C2449.85 1442.27 2428.13 1422.49 2401.35 1422.49C2374.57 1422.49 2352.86 1442.27 2352.86 1466.64C2352.86 1491.04 2374.57 1510.8 2401.35 1510.8Z" fill="#F7F7F7"/>
<path d="M2401.35 1647.08C2428.13 1647.08 2449.85 1627.34 2449.85 1602.95C2449.85 1578.55 2428.13 1558.79 2401.35 1558.79C2374.57 1558.79 2352.86 1578.55 2352.86 1602.95C2352.86 1627.34 2374.57 1647.08 2401.35 1647.08Z" fill="#F7F7F7"/>
<path d="M2401.35 1781.71C2428.13 1781.71 2449.85 1761.93 2449.85 1737.55C2449.85 1713.16 2428.13 1693.38 2401.35 1693.38C2374.57 1693.38 2352.86 1713.16 2352.86 1737.55C2352.86 1761.93 2374.57 1781.71 2401.35 1781.71Z" fill="#F7F7F7"/>
</g>
</g>
</g>
<defs>
<filter id="filter0_f_401_96" x="-430" y="-1805.22" width="13265.4" height="5553.29" filterUnits="userSpaceOnUse" color-interpolation-filters="sRGB">
<feFlood flood-opacity="0" result="BackgroundImageFix"/>
<feBlend mode="normal" in="SourceGraphic" in2="BackgroundImageFix" result="shape"/>
<feGaussianBlur stdDeviation="1.5" result="effect1_foregroundBlur_401_96"/>
</filter>
<clipPath id="clip0_401_96">
<rect width="2848" height="2844" fill="white"/>
</clipPath>
</defs>
</svg>
