<?xml version="1.0" encoding="utf-8"?>
<!-- Generator: Adobe Illustrator 24.1.1, SVG Export Plug-In . SVG Version: 6.00 Build 0)  -->
<svg version="1.1" xmlns="http://www.w3.org/2000/svg" xmlns:xlink="http://www.w3.org/1999/xlink" x="0px" y="0px"
	 viewBox="0 0 1080 1920" style="enable-background:new 0 0 1080 1920;" xml:space="preserve">
<style type="text/css">
	.st0{fill:#FFFFFF;}
	.st1{fill:#003C58;}
	.st2{fill:#52B2CB;}
	.st3{fill:#9ECCD8;}
	.st4{fill:#65B4D2;}
	.st5{fill:#023D58;}
	.st6{fill:#192C4C;}
	.st7{fill:#18949E;}
	.st8{fill:#6ABAD1;}
	.st9{fill:none;}
	.st10{fill:#192C4D;}
</style>
<g id="Capa_2">
</g>
<g id="Capa_1">
	<g>
		<path class="st0" d="M953.01,1437.94c-2.44,22.07-8.23,42.91-23.32,59.97c-17.95,20.29-41.73,30.84-66.92,38.44
			c-40.91,12.36-82.81,20.94-124.2,31.47c-45.55,11.59-91.25,22.55-136.77,34.25c-18.75,4.82-58.19,14.77-59.2,14.77
			c-0.7,0-12.03-3.61-17.09-4.89c-62.25-15.67-124.62-30.85-186.8-46.78c-41.88-10.73-84.29-19.47-125.63-32.23
			c-29.14-8.99-54.86-23.34-70.91-50.76c-12.33-21.06-14.82-44.29-14.81-68.13c0.09-274.09-0.21-706.98-0.35-981.07
			c0,0,54-137,411-137c363,0,410.72,136.98,415,137c0,0,0.3,712.18,0.29,989.36C953.29,1424.47,953.19,1436.38,953.01,1437.94z"/>
		<g id="Capa_1_1_">
			<g>
				<g>
					<path class="st1" d="M533.19,550.81h12.27v26.66h-12.27V550.81z M532.24,338.24h14.39v26.66h-14.39V338.24z M553.71,549.86
						l14.39-3.07l6.13,30.67h-17.46L553.71,549.86z M527.05,549.86l-14.39-2.12l-6.13,29.73h18.4L527.05,549.86z M574.24,544.67
						l10.14-4.01l19.35,34.68l-17.46,2.12L574.24,544.67z M507.71,545.85l-10.14-4.01l-20.53,34.68l18.4,0.94L507.71,545.85z
						 M590.52,537.6l11.32-7.08l32.79,42.94l-19.35,2.12L590.52,537.6z M490.25,537.6l-11.32-7.08l-32.79,42.94l18.4,2.12
						L490.25,537.6z M605.85,526.27l9.2-9.2l58.27,50.02l-26.66,4.01L605.85,526.27z M474.91,527.45l-9.2-9.2l-57.33,49.07
						l26.66,4.01L474.91,527.45z M620.24,510.94l6.13-10.14l104.28,55.21l-35.86,7.08L620.24,510.94z M459.58,510.94l-6.13-10.14
						l-104.29,56.14l35.86,7.08L459.58,510.94z M630.39,491.59l4.01-11.32l176.95,53.08l-46.01,14.39L630.39,491.59z M449.43,492.53
						l-4.01-11.32l-176.95,53.08l46.01,14.39L449.43,492.53z M635.58,474.13l2.12-13.21l256.69,32.79l-39.87,22.41L635.58,474.13z
						 M443.3,474.13l-0.94-13.21l-255.75,32.79l39.87,22.41L443.3,474.13z M551.59,364.66l12.27,2.12l9.2-28.55h-16.28
						L551.59,364.66z M528.23,364.66l-12.27,2.12l-8.25-28.54h16.28L528.23,364.66z M572.11,369.85l12.27,5.19l18.4-33.74
						l-15.34-0.94L572.11,369.85z M508.65,368.91l-12.27,5.19l-18.4-32.79l15.34-0.94L508.65,368.91z M590.52,378.11l9.2,6.13
						l30.67-40.82l-16.28-0.94L590.52,378.11z M489.3,378.11l-9.2,6.13l-29.73-40.82l16.28-0.94L489.3,378.11z M605.85,389.2
						l6.13,5.19l56.39-46.01l-22.41-3.07L605.85,389.2z M476.09,387.31l-6.13,5.19l-55.45-46.24l22.41-4.01L476.09,387.31z
						 M616,399.58l7.08,10.14l102.39-51.2l-42.94-8.02L616,399.58z M463.82,398.4l-7.08,10.14l-101.21-51.2l42.94-8.26L463.82,398.4
						z M627.32,416.8l4.01,10.14l161.85-50.02l-35.86-12.27L627.32,416.8z M452.5,416.8l-4.01,10.14l-161.85-50.01l35.86-12.27
						L452.5,416.8z M633.46,431.19l2.12,10.14l241.35-31.61L838,391.32L633.46,431.19z M446.37,431.19l-2.13,10.15l-241.35-30.67
						l38.93-18.4L446.37,431.19z M637.7,456.91l-0.94-11.32l280.28-6.13v27.6L637.7,456.91z M442.12,456.91l0.94-11.32L159,439.46
						v28.55L442.12,456.91z"/>
					<polygon class="st1" points="585.33,519.19 539.32,486.4 493.31,519.19 510.77,466.11 465.71,432.37 522.1,432.37 
						539.32,378.11 557.72,432.37 614.11,432.37 568.1,466.11 					"/>
				</g>
				<g>
					<polygon class="st2" points="511.33,1276.01 566.72,1276.01 569.21,1279.46 541.34,1323.8 538.08,1323.8 508.95,1279.46 					
						"/>
					<g>
						<path class="st3" d="M477.57,1214.65c41.57,27.35,81.85,23.54,122.73-0.54c-0.03,12.48,1.67,24.33-0.16,36.23
							c-0.16,1.02-0.28,2.85-0.66,2.92c-9.92,1.68-14.77,13.09-25.69,13.02c-24.62-0.17-49.24-0.06-73.86-0.01
							c-3.53,0.01-9.59,0.16-10.77-4.59c-0.87-3.49-4.62-2.29-8.15-2.68c-5.79-0.65-3.4-8.2-3.43-12.7
							C477.53,1236.12,477.57,1225.95,477.57,1214.65z M538.86,1252.06c5.14,0,11.48,0.59,17.66-0.13
							c10.87-1.27,21.8-2.99,30.21-11.09c1.6-1.54,4.11-3.25,2.24-5.89c-1.68-2.37-3.71-0.31-5.58,0.34
							c-30.77,10.64-61.48,13.28-92.03-0.8c-2.01-0.93-4.17-1.86-5.49,0.49c-1.03,1.84-0.89,4.16,1.05,5.68
							c1.63,1.27,3.33,2.51,5.17,3.42C506.49,1251.24,521.83,1253.38,538.86,1252.06z"/>
						<path class="st4" d="M630.21,1141.12c-0.15-7.83-0.23-15.67-0.46-23.5c-0.09-3,0.43-7.14-3.9-8.18
							c0.75-1.61,2.72-2.22,3.06-5.02c1.24-10.27-0.09-17.34-3.5-28.37c1.02-16.98-8.46-29.52-19.5-39.99
							c-30.1-28.54-78.39-30.14-111.19-17.08c-18.41,7.33-25.07,16.7-35.81,33.07c-5.81,8.87-12.26,21.91-10.8,31.79
							c-1.6,8.93-6.29,16.37,2.65,24.48c-2.27,1.94-3.83,6.33-3.51,8.96c1,8.26,2.11,16.5,3.18,24.75
							c-10.26-2.44-15.89-8.97-17.86-19.28c-9.49-49.56,6.01-101.26,56.55-126.58c36.91-18.49,88.39-14.98,121.46,16.47
							c22.32,21.23,33.34,48.22,34.5,79.03c0.48,12.53,1.12,25.14-3.78,37.19C639.08,1134.35,635.95,1138.88,630.21,1141.12z"/>
						<path class="st3" d="M245.46,1194.35c13.49,19.83,32.51,24.24,55.21,23.26c12.24-0.53,24.9,0.61,37.17,0.53
							c2.85-0.02,8.09,2.33,7.96,6.9c-0.35,13.01-1.2,25.22-2.55,38.23c-8.22-5.6-11.69-13.89-12.03-23.32
							c-0.21-5.77-2.64-6.76-7.73-6.87c-16.69-0.36-33.52,2.13-50.02-2.69C257.93,1225.86,246.28,1212.11,245.46,1194.35z"/>
						<path class="st3" d="M732.09,1265.26c-0.03-13.58-0.45-27.79-0.53-41.37c-0.03-4.61,4.44-4.68,7.17-4.69
							c12.3-0.03,28.33-0.61,40.41-0.27c18.11,0.96,30.21-3.33,43.72-15.66c0.51,12.97-6.26,23.26-18.46,26.87
							c-10.24,3.03-20.64,3.16-31.14,2.99c-5.77-0.1-11.58,0.38-17.29-0.23c-8.28-0.89-12.27,1.01-12.17,10.62
							C743.89,1251.99,738.49,1259.51,732.09,1265.26z"/>
						<path class="st5" d="M916.51,1419.58c-2.24,20.28-7.56,39.42-21.43,55.1c-16.49,18.64-38.34,28.33-61.49,35.32
							c-37.59,11.35-76.08,19.24-114.11,28.91c-41.85,10.65-83.84,20.72-125.66,31.47c-17.23,4.43-53.47,13.57-54.4,13.57
							c-0.65,0-11.06-3.32-15.7-4.49c-57.19-14.4-114.5-28.34-171.63-42.98c-38.48-9.86-77.45-17.89-115.43-29.61
							c-26.77-8.26-50.4-21.44-65.16-46.64c-11.33-19.35-13.62-40.69-13.61-62.6c0.09-251.83,0.13-511.75,0-763.58
							c0,0,751.11,0.1,758.97,0.15c0,0-0.09,516.38-0.09,771.06C916.77,1407.2,916.67,1418.14,916.51,1419.58z M840.7,707.54
							c-3.92-0.1-9.04,0.01-12.97,0.01c-194.46-0.01-388.91-0.01-583.37-0.01c-11.09,0-11.6-0.88-11.6,10.42
							c0.01,157.51,0.45,315.88,0.59,473.38c0.05,62.63-0.84,125.27,0.64,187.89c0.65,27.39,12.71,47.54,38.36,58.68
							c5.75,2.5,11.43,5.21,17.32,7.32c26.89,9.63,54.63,16.2,82.32,23.07c46.63,11.57,93.32,22.92,140.02,34.24
							c17.41,4.22,33.61,4.81,51.29,0.12c80.62-21.36,162.44-38.23,241.1-66.8c25.48-9.25,37.34-30.75,36.67-64.36
							c0.01-214.93-0.39-659.39-0.38-660.42v-3.54H840.7z"/>
						<path class="st3" d="M840.56,1371.51"/>
						<path class="st3" d="M840.17,711.09"/>
						<path class="st6" d="M732.27,1271.99c-0.01,2.34-0.85,4.6-2.55,6.21c-0.35,0.33-0.68,0.63-0.97,0.93
							c-9.96,10.06-2.58,18.37,2.42,26.99c8.46,14.57,14.85,29.78,13.9,47.13c-0.27,4.89,0.44,10.24-3.6,13.95
							c-3.73,3.44-8.22,6-13.58,4.1c-6.3-2.24-8.3-7.83-8.72-13.67c-0.96-13.45-3.74-26.3-9.95-38.39
							c-11.98-23.36-32.11-35.11-57.96-39.46c-9.5-1.59-18.76-4.19-27.86-7.36c-4.01-1.4-6.32-0.72-8.12,2.07
							c-2.62,4.05-6.36,7.33-10.69,8.08c-10.56,1.83-15.44,9.18-20.28,17.46c-5.78,9.87-12.19,19.37-18.58,28.86
							c-2.68,3.98-3.29,7.69-1.93,12.39c4.29,14.84,16.03,58.5,18.37,69.25c0.16,0.72,0.65,1.34,1.36,1.57
							c0.89,0.29,2.4,0.47,4.86,0.01c27.11-4.99,53.02-13.85,78.75-23.41c5.79-2.15,11.01-1.45,14.84,3.52
							c3.28,4.26,3.71,9.29,1.01,14.05c-2.27,4.01-6.24,6.33-10.42,7.89c-10.24,3.84-20.52,7.57-30.88,11.08
							c-47.5,16.08-96.38,18.32-145.84,14.04c-15.05-1.3-30.11-3.88-44.73-7.06c-19.12-4.16-37.42-12.07-56.05-18.44
							c-1.46-0.5-2.75-1.5-4.09-2.31c-7.11-4.29-9.96-11.66-6.94-17.84c3.07-6.28,9.54-8.37,17.6-5.41c8.83,3.24,17.49,7,26.4,9.99
							c20.13,6.75,41.02,10.41,61.71,14.88c4.12,0.89,3.57-2.02,3.98-3.98c4.31-20.74,10.26-41.16,17.2-61.15
							c3.08-8.86,2.11-15.26-3.49-22.68c-8.07-10.72-15.61-22.64-22.93-33.92c-2.17-3.34-4.87-5.91-8.9-7.23
							c-3.17-1.04-7.21-2.3-8.78-4.78c-5.8-9.13-13.18-8-21.65-5.13c-14.35,4.87-29.52,6.86-43.72,12.34
							c-21.84,8.44-34.15,25.62-42.13,46.46c-2.89,7.55-4.25,15.63-4.75,23.8c-0.16,2.57-0.84,5.19-1.71,7.63
							c-1.86,5.18-5.75,8.36-11.22,8.3c-5.6-0.07-9.06-3.4-10.13-9.06c-1.72-9.12-1.66-18.35,0.78-27.18
							c4.15-15.01,8.66-30,18.69-42.49c1.79-2.22,0.82-5.11-0.24-6.53c-5.45-7.27-6.1-15.83-7.49-24.24
							c1.34-13,0.21-26.04,0.56-39.06c0.12-4.57-2.91-4.1-5.76-4.08c-12.26,0.08-24.54-0.15-36.79,0.38
							c-24.49-0.52-42.32-4.59-55.81-24.42c-4.37-10.11-4.4-20.78-4.39-31.54c0.07-57.03,0.23-114.05-0.17-171.08
							c-0.11-16.21,9.74-28.91,20.84-30.5c4.64-0.66,12.25-0.9,12.4-13.83c0.25-20.66,9.8-28.09,29.51-28.32
							c9.25,0.49,14.23-1.87,15.24-11.18c5.13-6.36,11.11-10.79,19.95-9.73c3.55,0.43,5.15-1.75,5.11-5.26
							c-0.17-19.26-0.31-38.51-0.46-57.77c0.89-19.79,9.55-27.6,29.49-27.42c26.45,0.24,52.9,0.01,79.35,0.16
							c4.23,0.02,6.14-0.89,5.86-5.65c-1.2-20.11,12.95-31.87,31.27-32.25c33.76-0.7,67.56-0.86,101.32-0.15
							c15.14,0.32,29.62,10.18,28.72,30c-0.29,6.41,1.63,8.34,8.21,8.22c24.87-0.47,49.75-0.21,74.63-0.37
							c16.33-0.11,29.02,11.2,30.23,27.26c-0.14,19.51-0.2,39.02-0.49,58.52c-0.07,4.6,2.89,3.97,5.7,4.19
							c11.09,0.87,18.28,6.54,21.19,17.39c0.61,2.29,0.75,4.99,4.35,3.55c4.44,0.07,8.88,0.05,13.31,0.24
							c12.02,0.53,21.85,9.03,24.04,20.82c0.52,2.81,1.18,5.79,0.79,8.55c-1.18,8.42,1.24,12.91,10.64,13.14
							c6.46,0.16,11.22,4.91,15.88,9.1c0.39,1.46,0.82,2.89,2.37,3.59c3.32,5.81,4.88,12.1,4.88,18.74
							c0.02,58.38,0.02,116.75-0.05,175.13c-0.02,13.02-5.02,24.38-12.37,34.85c-14.89,13.59-26.85,15.41-52.51,15.67
							c-10.19,0.11-17.43,0-31.15,0.04c-2.84,0.01-6.91-1.15-6.88,3.94c0.08,13.58,0.08,27.16,0.11,40.73
							C732.49,1268.05,732.28,1269.28,732.27,1271.99z M488.05,799.44c0.07,10.81,0.07,10.81,10.68,10.81
							c27.43,0,54.87,0.02,82.3-0.04c3.32-0.01,6.86,0.85,9.74-1.77c0.39-8.64-3.56-10.94-12.17-10.74
							c-27.45,0.64-54.93,0.2-82.4,0.29C493.47,798,490.39,796.93,488.05,799.44z M515.32,1277.31c-4.25-0.11-5.08,2.01-2.62,5.58
							c7.24,10.49,13.3,21.11,20.59,31.57c4.31,5.76,7.95,5.89,11.97,0.55c7.84-12.1,13.31-21.69,20.77-33.28
							c1.42-2.2,0.65-4.36-2.27-4.26C555.49,1277.75,522.01,1277.47,515.32,1277.31z M266.81,997.36c-0.07,19.1-0.2,38.2-0.2,57.3
							c0,36.64,0.32,73.27,0.02,109.91c-0.13,16.07,11.33,31.34,29.68,29.65c11.42-1.05,23-0.42,34.51-0.55
							c2.35,0.08,4.72,0,7.05,0.27c4.37,0.5,5.88-1.12,5.87-5.68c-0.09-65.26-0.07-130.52,0.11-195.77c0.01-5.05-1.86-6.07-6.46-6
							c-20.18,0.31-40.36,0.32-60.54,0.37C266.23,986.88,266.22,986.81,266.81,997.36z M744.57,1193.69
							c12.81,0.11,25.63,0.28,38.44,0.31c4.74,0.01,9.24-1.21,13.53-3.29c10.78-5.24,13.07-14.81,13.08-25.52
							c0.04-54.41,0.05-108.82,0.02-163.23c0-2.07,0.26-3.98,0.01-6.04c0.61-9.76-3.33-10.09-14.13-9.06
							c-17.31,1.66-34.73,1.65-52.03-0.08c-9.66-0.97-11.29,1.19-11.27,8.32c0.16,63.83,0.12,127.66-0.22,191.49
							c-0.04,6.52,2.05,8.32,7.9,7.44C741.43,1193.8,743.01,1193.8,744.57,1193.69z M630.21,1141.12c5.74-2.25,8.87-6.77,11.1-12.26
							c4.9-12.05,4.26-24.66,3.78-37.19c-1.17-30.8-12.18-57.8-34.5-79.03c-33.07-31.45-84.55-34.96-121.46-16.47
							c-50.54,25.32-66.04,77.02-56.55,126.58c1.97,10.31,7.6,16.85,17.86,19.28c7.11,0.86,10.27,5.61,12.34,11.89
							c1.12,3.42,2.99,6.66,4.93,9.72c16.85,26.59,39.89,44.1,72.44,42.75c32.22-1.33,56.43-17.97,70.47-46.91
							C615.22,1149.99,619.19,1142.53,630.21,1141.12z M414.91,1152.33c-1.19-2.31-2.73-4.51-3.52-6.95
							c-12.64-38.74-10.7-76.55,6.94-113.52c5.65-11.84,13.83-22.99,22.72-32.95c-4.47-0.36-7.51-0.18-10.54-0.35
							c-3.14-0.18-6.3,0.06-9.43-0.22c-8.03-0.72-11.12-4.64-10.21-12.56c0.92-7.99,6.65-9.07,13.1-9.26
							c14.35-0.43,31.5-0.18,46.74-0.18c8.5-1.53,10.05-4.75,17.5-8.07c38.29-17.1,77.49-14.19,114.65,6.54
							c3.04,1.69,5.28,1.73,10.02,1.65c12.57-0.22,24.83-0.1,37.41-0.15c8.99-0.04,13.74,3.67,13.83,10.42
							c0.11,8-4.25,11.65-14.15,11.75c-5.08,0.05-10.15,0.01-16.3,0.01c39.01,44.81,44.89,94.93,29.79,149.12
							c-5.61,8.17-10.97,16.63-22.6,16.72c-2.29,0.02-2.68,1.95-3.2,3.79c-3.12,11.05-9.64,20.03-17.83,27.73
							c-3.99,3.75-3.68,6.32,0.45,9.19c4.33,12.34,7.33,24.92,6.33,38.2c-0.15,2.03-1.26,4.81,2.26,5.63
							c6.37,1.48,12.7,3.11,19.07,4.59c17.27,4.02,34.68,7.55,51.3,13.87c5.7,2.17,7.6,1.24,7.59-5.17
							c-0.12-140.18-0.11-280.36,0.03-420.54c0.01-4.98-1.38-5.9-6.16-5.9c-107.43,0.17-214.85,0.22-322.28-0.01
							c-6.77-0.01-8.75,1.19-8.74,8.39c0.11,80.96-0.24,161.92-0.35,242.88c-0.08,57.38,0,114.76,0.08,172.14
							c0.01,8.61,1.02,9.16,9.42,6.44c6.98-2.27,13.9-4.84,21.01-6.61c15.7-3.92,31.5-7.45,47.26-11.09c2.2-0.51,4.65,0.01,4.16-3.9
							c-1.73-13.58,0.99-26.52,6.41-38.97c3.87-2.64,3.82-5.11,0.67-8.73c-7.63-8.77-16.23-16.93-20.04-28.44
							c-0.35-1.07-1.56-2.49-2.52-2.63C426.89,1163.98,421.53,1157.16,414.91,1152.33z M477.57,1214.65c0,11.3-0.08,28.9-0.02,39.06
							c14.27,3.19,16.39,12.56,22.38,12.55c24.62-0.04,49.24-0.16,73.86,0.01c10.91,0.08,15.77-11.34,25.69-13.02
							c0.37-0.06,0.5-1.9,0.66-2.92c1.83-11.9,0.13-23.76,0.16-36.23C559.42,1238.19,519.14,1242,477.57,1214.65z M539.42,1347.96
							c-7.42,20.89-14.38,41.74-18.9,62.06c-0.91,4.07,0.48,5.49,4.98,5.23c7.75-0.44,15.52-0.57,23.25,0.07
							c6.28,0.51,7.21-1.54,5.94-6.51c-2.58-10.09-4.25-20.44-7.28-30.38C544.43,1368.64,543.42,1360.08,539.42,1347.96z
							 M321.16,946.26c0-0.12,0-0.24,0-0.37c-5.2,0-10.42,0.25-15.61-0.08c-4.29-0.27-6.7,0.93-5.75,5.53
							c0.84,4.05-3.42,10.94,7.33,9.81c8.68-0.91,17.43-1.19,26.11-0.23c7.36,0.81,10.08,0.47,10.13-5.36
							c0.09-9.83,0.36-9.76-9.72-9.33C329.5,946.41,325.33,946.26,321.16,946.26z M753.5,961.32c0,0.03,0,0.05,0,0.08
							c5.21,0,10.43-0.1,15.64,0.03c3.77,0.1,7.12-0.14,6.03-5.27c-0.84-3.96,2.14-10.15-5.93-10.11
							c-9.38,0.04-18.81,0.28-28.13-0.57c-7.55-0.69-9.28,1.99-8.89,9.16c0.22,3.96,3.65,7.05,7.6,6.74
							C744.36,961.01,748.94,961.32,753.5,961.32z"/>
						<path class="st3" d="M763.32,920.33c-3.59,1.44-3.74-1.26-4.35-3.55c-2.9-10.84-10.1-16.52-21.19-17.39
							c-2.81-0.22-5.77,0.41-5.7-4.19c0.29-19.51,0.34-39.01,0.49-58.52c7.69-1.11,13.11,2.13,16.89,8.67
							c0.64,1.11,1.44,2.41,2.51,2.96c11.62,5.94,12.07,16.28,11.65,27.49C763.08,890.63,765.23,905.49,763.32,920.33z"/>
						<path class="st3" d="M343.5,836.89c0.15,19.26,0.29,38.51,0.46,57.77c0.03,3.51-1.57,5.69-5.11,5.26
							c-8.84-1.06-14.82,3.38-19.95,9.73c-0.43-14.34-0.1-28.74-3.07-42.9c-0.45-2.15,0.23-4.1,1-6.09
							c3.55-9.19,12.2-14.47,17.26-22.57C336.14,834.81,340.16,835.96,343.5,836.89z"/>
						<path class="st3" d="M830.37,975.77c-1.55-0.7-1.98-2.13-2.37-3.59C830.13,972.49,830.45,974,830.37,975.77z"/>
						<path class="st3" d="M330.83,1193.67c-0.03-62.57-0.19-125.14,0.07-187.71c0.03-7.91-2.24-10.6-10.23-10.32
							c-14.9,0.52-29.84,0.08-44.76,0.07c-3.12,0-6.33-0.34-9.1,1.65c-0.59-10.54-0.59-10.48,10.06-10.5
							c20.18-0.05,40.36-0.06,60.54-0.37c4.59-0.07,6.47,0.95,6.46,6c-0.18,65.26-0.21,130.52-0.11,195.77
							c0.01,4.55-1.5,6.17-5.87,5.68C335.55,1193.67,333.18,1193.75,330.83,1193.67z"/>
						<path class="st3" d="M809.66,995.92c-19.13-0.02-38.98-0.03-58.11-0.3c-5.98-0.09-8.41,1.74-8.4,8.04
							c0.15,60.79,0.07,121.59,0.06,182.38c0,2.63,0.02,5.25,1.36,7.65c-1.56,0.11-3.14,0.11-4.68,0.34
							c-5.85,0.88-7.93-0.92-7.9-7.44c0.34-63.83,0.38-127.66,0.22-191.49c-0.02-6.24,1.23-8.67,8.01-8.54
							c20.13,0.4,40.29,0.39,60.42-0.04C807.9,986.37,810.25,988.23,809.66,995.92z"/>
						<path class="st2" d="M539.42,1347.96c9.4,31.59,12.69,50.76,15.27,60.85c1.2,4.69,0.44,6.78-4.93,6.57
							c-8.34-0.33-16.7-0.19-25.05-0.1c-3.87,0.04-5.04-1.44-4.19-5.26C525.04,1389.7,532,1368.85,539.42,1347.96z"/>
						<path class="st3" d="M663.47,1147.59c2.48,28.8-21.74,50.92-43.19,57.42c-4.13-2.87-4.44-5.44-0.45-9.19
							c8.19-7.7,14.72-16.68,17.83-27.73c0.52-1.83,0.91-3.77,3.2-3.79C652.49,1164.22,657.86,1155.76,663.47,1147.59z"/>
						<path class="st3" d="M457.69,1205c-20.51-8.64-36.86-21.29-42.62-44.18c-0.71-2.83-1.01-5.64-0.16-8.49
							c6.62,4.82,11.98,11.65,20.89,12.86c0.96,0.13,2.17,1.56,2.52,2.63c3.81,11.52,12.41,19.68,20.04,28.44
							C461.51,1199.89,461.56,1202.36,457.69,1205z"/>
						<path class="st6" d="M623.13,1072.88c1.6,2.81,3.38,5.54,4.47,8.59c4.75,13.32,2.77,21.48,2.22,23.11l-0.03,0.08
							c-1.08,3.2-3.92,5.49-7.27,5.9c-10,1.22-13.45-1.65-16.89-12.38c-9.44-29.51-33.82-47.45-64.34-49.31
							c-32.99-2.01-60.27,21.16-70.08,43.42c-0.9,2.05-2.46,5.08-3.2,7.02c-3.44,9.06-5.45,11.73-12.17,11.5
							c-6.17-0.21-11.34-4.92-11.57-11.09c-0.14-3.9,1.08-7.9,2.1-11.88c0.78-3.03,1.93-5.95,3.44-8.7
							c6.37-11.59,13.29-22.65,23.5-31.82c17.66-15.85,38.24-23.38,61.32-24.64c28.18-1.54,51.08,10.62,71.48,28.87
							C613.04,1057.75,619.17,1065.92,623.13,1072.88z"/>
						<path class="st7" d="M625.48,1076.69c-5.07-8.64-11.45-18.05-19.36-25.13c-20.4-18.25-43.31-30.41-71.48-28.87
							c-23.08,1.26-43.66,8.79-61.32,24.64c-11.59,10.4-19.28,23.11-25.67,36.5c-0.21-11.19-0.04-15.24,2.66-22.1
							c2.13-5.41,5.01-10.51,8.51-15.15c9.47-12.57,20.23-21.37,35.89-27.61c32.8-13.06,81.09-11.46,111.19,17.08
							C616.95,1046.53,626.5,1059.71,625.48,1076.69z"/>
					</g>
					<path class="st8" d="M589.51,810.12H489.32c-1.22,0-2.21-0.99-2.21-2.21v-7.8c0-1.22,0.99-2.21,2.21-2.21h100.19
						c1.22,0,2.21,0.99,2.21,2.21v7.8C591.72,809.13,590.73,810.12,589.51,810.12z"/>
					<path class="st8" d="M341.35,962.08h-39.69c-1.21,0-2.19-0.98-2.19-2.19v-12.73c0-1.21,0.98-2.19,2.19-2.19h39.69
						c1.21,0,2.19,0.98,2.19,2.19v12.73C343.54,961.1,342.56,962.08,341.35,962.08z"/>
					<path class="st8" d="M773.57,961.97h-39.69c-1.21,0-2.19-0.98-2.19-2.19v-12.73c0-1.21,0.98-2.19,2.19-2.19h39.69
						c1.21,0,2.19,0.98,2.19,2.19v12.73C775.76,960.99,774.78,961.97,773.57,961.97z"/>
					<path class="st9" d="M539.47,1279.46"/>
					<path class="st10" d="M655.47,900.52h-232.1c-6.3,0-11.42-5.11-11.42-11.42l0,0c0-6.3,5.11-11.42,11.42-11.42h232.09
						c6.3,0,11.42,5.11,11.42,11.42l0,0C666.88,895.41,661.77,900.52,655.47,900.52z"/>
					<path class="st10" d="M655.47,950.2h-232.1c-6.3,0-11.42-5.11-11.42-11.42l0,0c0-6.3,5.11-11.42,11.42-11.42h232.09
						c6.3,0,11.42,5.11,11.42,11.42l0,0C666.88,945.09,661.77,950.2,655.47,950.2z"/>
					<circle class="st6" cx="773.61" cy="1045.72" r="11.56"/>
					<circle class="st6" cx="300.58" cy="1045.72" r="11.56"/>
					<circle class="st6" cx="300.58" cy="1088.27" r="11.56"/>
					<circle class="st6" cx="300.58" cy="1124.03" r="11.56"/>
					<circle class="st6" cx="300.58" cy="1159.8" r="11.56"/>
					<circle class="st6" cx="773.61" cy="1087.87" r="11.56"/>
					<circle class="st6" cx="773.61" cy="1123.57" r="11.56"/>
					<circle class="st6" cx="773.61" cy="1158.84" r="11.56"/>
				</g>
			</g>
		</g>
	</g>
</g>
</svg>
